<svg width="512" height="512" viewBox="0 0 512 512" fill="currentColor" xmlns="http://www.w3.org/2000/svg">
<path d="M147 250.6C148.733 250.6 150.067 251.467 151 253.2C151.933 254.933 152.4 257.133 152.4 259.8C152.4 263.133 151.933 265.733 151 267.6C150.067 269.333 148.6 270.533 146.6 271.2C138.6 274 129.8 275.6 120.2 276C117.533 287.067 112.467 296 105 302.8C97.6667 309.6 89.5333 313 80.6 313C67.1333 313 57.3333 307.867 51.2 297.6C45.0667 287.333 42 272.467 42 253C42 235.8 44.1333 217.133 48.4 197C52.6667 176.733 58.8667 159.533 67 145.4C75.2667 131.133 85.0667 124 96.4 124C102.533 124 107.467 126.667 111.2 132C114.933 137.2 116.8 144 116.8 152.4C116.8 163.333 114.733 174.2 110.6 185C106.467 195.8 99.6 207.133 90 219C98.9333 219.667 106.2 223.4 111.8 230.2C117.4 236.867 120.733 245.133 121.8 255C128.067 254.6 135.533 253.267 144.2 251C145 250.733 145.933 250.6 147 250.6ZM91.8 143.8C89.1333 143.8 86.2 147.8 83 155.8C79.9333 163.667 77.0667 174.4 74.4 188C71.7333 201.6 69.7333 216.467 68.4 232.6C77.2 216.467 84.2 202.267 89.4 190C94.7333 177.6 97.4 166.6 97.4 157C97.4 152.733 96.8667 149.467 95.8 147.2C94.8667 144.933 93.5333 143.8 91.8 143.8ZM81.4 291.8C85.5333 291.8 89.2 290.067 92.4 286.6C95.6 283.133 97.7333 278.133 98.8 271.6C94.6667 268.8 91.4667 265.133 89.2 260.6C87.0667 256.067 86 251.267 86 246.2C86 244.333 86.2667 241.8 86.8 238.6H86.2C80.7333 238.6 76.1333 241.333 72.4 246.8C68.8 252.133 67 259.333 67 268.4C67 276 68.4 281.8 71.2 285.8C74.1333 289.8 77.5333 291.8 81.4 291.8ZM161.331 205.6C155.731 205.6 151.531 204.333 148.731 201.8C145.931 199.133 144.531 195.467 144.531 190.8C144.531 186.133 146.331 182.267 149.931 179.2C153.665 176 158.265 174.4 163.731 174.4C168.665 174.4 172.665 175.6 175.731 178C178.798 180.4 180.331 183.8 180.331 188.2C180.331 193.533 178.598 197.8 175.131 201C171.665 204.067 167.065 205.6 161.331 205.6ZM159.731 313C151.065 313 144.731 309.933 140.731 303.8C136.865 297.667 134.931 289.533 134.931 279.4C134.931 273.4 135.665 265.733 137.131 256.4C138.731 246.933 140.731 238.133 143.131 230C144.331 225.733 145.931 222.8 147.931 221.2C149.931 219.6 153.131 218.8 157.531 218.8C164.331 218.8 167.731 221.067 167.731 225.6C167.731 228.933 166.465 236.667 163.931 248.8C160.731 263.467 159.131 273.4 159.131 278.6C159.131 282.6 159.665 285.667 160.731 287.8C161.798 289.933 163.598 291 166.131 291C168.531 291 171.531 289.333 175.131 286C178.731 282.667 183.531 277.4 189.531 270.2C191.131 268.333 192.931 267.4 194.931 267.4C196.665 267.4 197.998 268.2 198.931 269.8C199.998 271.4 200.531 273.6 200.531 276.4C200.531 281.733 199.265 285.867 196.731 288.8C183.531 304.933 171.198 313 159.731 313ZM198.55 313C193.483 313 189.883 310.333 187.75 305C185.75 299.667 184.75 291.133 184.75 279.4C184.75 262.067 187.217 245.6 192.15 230C193.35 226.133 195.283 223.333 197.95 221.6C200.75 219.733 204.617 218.8 209.55 218.8C212.217 218.8 214.083 219.133 215.15 219.8C216.217 220.467 216.75 221.733 216.75 223.6C216.75 225.733 215.75 230.533 213.75 238C212.417 243.333 211.35 248 210.55 252C209.75 256 209.083 260.933 208.55 266.8C212.95 255.333 217.883 246 223.35 238.8C228.817 231.6 234.15 226.467 239.35 223.4C244.683 220.333 249.55 218.8 253.95 218.8C262.617 218.8 266.95 223.133 266.95 231.8C266.95 237 265.483 246.4 262.55 260C260.017 271.6 258.75 279.267 258.75 283C258.75 288.333 260.683 291 264.55 291C267.217 291 270.35 289.4 273.95 286.2C277.683 282.867 282.617 277.533 288.75 270.2C290.35 268.333 292.15 267.4 294.15 267.4C295.883 267.4 297.217 268.2 298.15 269.8C299.217 271.4 299.75 273.6 299.75 276.4C299.75 281.733 298.483 285.867 295.95 288.8C290.217 295.867 284.017 301.667 277.35 306.2C270.817 310.733 263.35 313 254.95 313C248.15 313 243.017 311.067 239.55 307.2C236.083 303.2 234.35 297.467 234.35 290C234.35 286.267 235.283 279.6 237.15 270C238.883 261.6 239.75 255.8 239.75 252.6C239.75 250.467 239.017 249.4 237.55 249.4C235.817 249.4 233.35 251.667 230.15 256.2C227.083 260.6 223.883 266.467 220.55 273.8C217.35 281.133 214.75 288.867 212.75 297C211.283 303.267 209.55 307.533 207.55 309.8C205.683 311.933 202.683 313 198.55 313ZM385.969 267.8C387.702 267.8 389.035 268.667 389.969 270.4C391.035 272 391.569 274.067 391.569 276.6C391.569 279.667 391.102 282.067 390.169 283.8C389.235 285.533 387.769 287.067 385.769 288.4L347.369 314.2C342.302 341.8 335.635 363.467 327.369 379.2C319.235 395.067 308.835 403 296.169 403C289.369 403 283.835 400.867 279.569 396.6C275.302 392.467 273.169 387 273.169 380.2C273.169 373.933 274.569 367.533 277.369 361C280.302 354.467 285.635 346.933 293.369 338.4C301.235 330 312.302 320.333 326.569 309.4L327.169 304.8C328.102 299.867 329.169 292.8 330.369 283.6C327.702 293.2 323.969 300.533 319.169 305.6C314.369 310.533 309.302 313 303.969 313C297.969 313 293.035 310.267 289.169 304.8C285.435 299.2 283.569 292.267 283.569 284C283.569 274 284.235 264.867 285.569 256.6C286.902 248.2 289.102 239.333 292.169 230C293.502 226 295.369 223.133 297.769 221.4C300.169 219.667 303.969 218.8 309.169 218.8C312.102 218.8 314.102 219.267 315.169 220.2C316.369 221.133 316.969 222.533 316.969 224.4C316.969 225.467 316.235 229.067 314.769 235.2C313.435 240.133 312.369 244.6 311.569 248.6C310.502 254.067 309.569 259.333 308.769 264.4C307.969 269.333 307.569 273.4 307.569 276.6C307.569 281.667 308.969 284.2 311.769 284.2C313.769 284.2 316.235 282.2 319.169 278.2C322.235 274.2 325.435 268.133 328.769 260C332.235 251.867 335.569 241.867 338.769 230C339.835 226 341.435 223.133 343.569 221.4C345.835 219.667 349.169 218.8 353.569 218.8C356.635 218.8 358.769 219.2 359.969 220C361.169 220.8 361.769 222.133 361.769 224C361.769 227.333 360.035 238.8 356.569 258.4L351.369 290.6C361.635 282.867 371.635 275.8 381.369 269.4C383.102 268.333 384.635 267.8 385.969 267.8ZM298.369 383.6C301.702 383.6 305.435 379.733 309.569 372C313.702 364.267 317.835 351.4 321.969 333.4C311.702 342.067 304.235 349.933 299.569 357C295.035 364.2 292.769 370.467 292.769 375.8C292.769 378.067 293.169 379.933 293.969 381.4C294.902 382.867 296.369 383.6 298.369 383.6ZM397.923 313C391.657 313 386.59 310.467 382.723 305.4C378.99 300.2 377.123 293.067 377.123 284C377.123 274 377.79 264.867 379.123 256.6C380.457 248.2 382.657 239.333 385.723 230C387.057 226 388.923 223.133 391.323 221.4C393.723 219.667 397.523 218.8 402.723 218.8C405.657 218.8 407.657 219.267 408.723 220.2C409.923 221.133 410.523 222.533 410.523 224.4C410.523 225.467 409.79 229.067 408.323 235.2C406.99 240.133 405.923 244.6 405.123 248.6C402.457 262.6 401.123 271.933 401.123 276.6C401.123 279.4 401.457 281.4 402.123 282.6C402.79 283.667 403.857 284.2 405.323 284.2C407.323 284.2 409.857 282.2 412.923 278.2C415.99 274.067 419.19 267.933 422.523 259.8C425.99 251.533 429.257 241.6 432.323 230C433.39 226 434.99 223.133 437.123 221.4C439.39 219.667 442.723 218.8 447.123 218.8C450.057 218.8 452.123 219.6 453.323 221.2C454.657 222.667 455.323 224.933 455.323 228C455.323 231.333 455.057 235.067 454.523 239.2C453.99 243.2 453.39 247.333 452.723 251.6C451.39 260.133 450.323 267.933 449.523 275C448.723 281.933 448.323 289.867 448.323 298.8C448.323 303.867 447.257 307.533 445.123 309.8C443.123 311.933 439.79 313 435.123 313C430.19 313 426.723 311.733 424.723 309.2C422.857 306.533 421.923 301.467 421.923 294C421.923 292.533 422.057 289.267 422.323 284.2C420.057 293.533 416.657 300.667 412.123 305.6C407.723 310.533 402.99 313 397.923 313Z" fill="black"/>
</svg>
